<?xml version="1.0" encoding="iso-8859-1"?>
<!-- Generator: Adobe Illustrator 16.0.0, SVG Export Plug-In . SVG Version: 6.00 Build 0)  -->
<!DOCTYPE svg PUBLIC "-//W3C//DTD SVG 1.1//EN" "http://www.w3.org/Graphics/SVG/1.1/DTD/svg11.dtd">
<svg version="1.1" id="Capa_1" xmlns="http://www.w3.org/2000/svg" xmlns:xlink="http://www.w3.org/1999/xlink" x="0px" y="0px"
	 width="390px" height="390px" viewBox="0 0 390 390" style="enable-background:new 0 0 390 390;" xml:space="preserve">
<g>
	<path d="M390,195c0,0-28.852-32.949-65.068-34.815c30.433-19.723,38.944-62.685,38.944-62.685s-41.462-14.107-73.76,2.385
		c16.493-32.297,2.384-73.76,2.384-73.76s-42.959,8.512-62.684,38.945C227.951,28.854,195,0,195,0s-32.95,28.854-34.816,65.07
		C140.461,34.637,97.5,26.124,97.5,26.124s-14.107,41.463,2.385,73.761C67.587,83.392,26.124,97.5,26.124,97.5
		s8.513,42.961,38.945,62.685C28.854,162.051,0,195,0,195s28.854,32.951,65.069,34.816c-30.433,19.724-38.945,62.685-38.945,62.685
		s41.463,14.106,73.761-2.385c-16.492,32.297-2.385,73.761-2.385,73.761s42.961-8.513,62.685-38.945C162.05,361.148,195,390,195,390
		s32.95-28.852,34.816-65.068c19.723,30.433,62.684,38.944,62.684,38.944s14.107-41.462-2.384-73.76
		c32.297,16.493,73.76,2.384,73.76,2.384s-8.512-42.959-38.944-62.684C361.147,227.951,390,195,390,195z M261.468,156.625
		c0,0-3.286,16.552-14.96,24.42c-1.318-0.839-10.539-6.419-19.547-4.497c6.167-6.837,5.945-17.609,5.877-19.176
		C245.49,151.195,261.468,156.625,261.468,156.625z M233.375,128.532c0,0,5.43,15.979-0.747,28.63
		c-1.565-0.067-12.339-0.29-19.177,5.877c1.922-9.004-3.653-18.222-4.496-19.546C216.824,131.818,233.375,128.532,233.375,128.532z
		 M195,118.25c0,0,12.691,11.122,13.668,25.167c-1.391,0.726-10.832,5.921-13.669,14.68c-2.836-8.757-12.273-13.952-13.667-14.679
		C182.309,129.372,195,118.25,195,118.25z M156.625,128.532c0,0,16.551,3.287,24.419,14.961c-0.841,1.322-6.418,10.542-4.496,19.547
		c-6.838-6.167-17.609-5.945-19.176-5.877C151.195,144.51,156.625,128.532,156.625,128.532z M157.163,157.372
		c-0.068,1.566-0.291,12.339,5.877,19.177c-9.008-1.923-18.227,3.656-19.547,4.495c-11.674-7.869-14.96-24.42-14.96-24.42
		S144.511,151.195,157.163,157.372z M118.25,195c0,0,11.123-12.692,25.167-13.668c0.729,1.395,5.923,10.831,14.679,13.668
		c-8.758,2.838-13.953,12.277-14.68,13.669C129.372,207.691,118.25,195,118.25,195z M128.532,233.376c0,0,3.287-16.552,14.961-24.42
		c1.323,0.841,10.542,6.418,19.546,4.496c-6.168,6.838-5.944,17.612-5.877,19.177C144.511,238.805,128.532,233.376,128.532,233.376z
		 M156.625,261.469c0,0-5.43-15.979,0.748-28.631c1.567,0.066,12.338,0.29,19.176-5.878c-1.923,9.007,3.657,18.228,4.497,19.547
		C173.176,258.182,156.625,261.469,156.625,261.469z M195,271.75c0,0-12.693-11.123-13.668-25.167
		c1.394-0.728,10.831-5.922,13.668-14.679c2.838,8.759,12.277,13.953,13.669,14.68C207.691,260.628,195,271.75,195,271.75z
		 M233.375,261.468c0,0-16.552-3.286-24.42-14.961c0.841-1.323,6.418-10.542,4.496-19.546c6.838,6.168,17.613,5.943,19.177,5.877
		C238.805,245.49,233.375,261.468,233.375,261.468z M232.837,232.628c0.067-1.565,0.29-12.338-5.877-19.176
		c9.007,1.922,18.228-3.657,19.547-4.497c11.675,7.869,14.96,24.419,14.96,24.419S245.489,238.807,232.837,232.628z
		 M246.583,208.668c-0.728-1.395-5.921-10.831-14.681-13.668c8.758-2.836,13.953-12.273,14.681-13.668
		C260.628,182.308,271.75,195,271.75,195S260.628,207.691,246.583,208.668z"/>
</g>
<g>
</g>
<g>
</g>
<g>
</g>
<g>
</g>
<g>
</g>
<g>
</g>
<g>
</g>
<g>
</g>
<g>
</g>
<g>
</g>
<g>
</g>
<g>
</g>
<g>
</g>
<g>
</g>
<g>
</g>
</svg>
